#N canvas 559 470 1193 800 12;
#X obj 415 268 pigpio_init;
#X obj 135 340 unpack f f f f f f f f;
#X obj 269 372 vsl 15 128 0 1 0 0 empty empty empty 0 -9 0 10 -262144
-1 -1 1254 1;
#X obj 249 372 vsl 15 128 0 1 0 0 empty empty empty 0 -9 0 10 -262144
-1 -1 12700 1;
#X obj 229 372 vsl 15 128 0 1 0 0 empty empty empty 0 -9 0 10 -262144
-1 -1 211 1;
#X obj 209 372 vsl 15 128 0 1 0 0 empty empty empty 0 -9 0 10 -262144
-1 -1 12700 1;
#X obj 189 372 vsl 15 128 0 1 0 0 empty empty empty 0 -9 0 10 -262144
-1 -1 12700 1;
#X obj 169 372 vsl 15 128 0 1 0 0 empty empty empty 0 -9 0 10 -262144
-1 -1 12117 1;
#X obj 149 372 vsl 15 128 0 1 0 0 empty empty empty 0 -9 0 10 -262144
-1 -1 12303 1;
#X obj 129 372 vsl 15 128 0 1 0 0 empty empty empty 0 -9 0 10 -262144
-1 -1 7511 1;
#X obj 135 253 metro 50;
#X obj 309 197 t b b;
#X obj 305 154 loadbang;
#X obj 133 312 pigpio_mcp3008 25 6 12 5;
#X obj 541 411 unpack f f f f f f f f;
#X obj 675 443 vsl 15 128 0 1 0 0 empty empty empty 0 -9 0 10 -262144
-1 -1 695 1;
#X obj 655 443 vsl 15 128 0 1 0 0 empty empty empty 0 -9 0 10 -262144
-1 -1 683 1;
#X obj 635 443 vsl 15 128 0 1 0 0 empty empty empty 0 -9 0 10 -262144
-1 -1 12700 1;
#X obj 615 443 vsl 15 128 0 1 0 0 empty empty empty 0 -9 0 10 -262144
-1 -1 12414 1;
#X obj 595 443 vsl 15 128 0 1 0 0 empty empty empty 0 -9 0 10 -262144
-1 -1 11347 1;
#X obj 575 443 vsl 15 128 0 1 0 0 empty empty empty 0 -9 0 10 -262144
-1 -1 4295 1;
#X obj 555 443 vsl 15 128 0 1 0 0 empty empty empty 0 -9 0 10 -262144
-1 -1 12 1;
#X obj 535 443 vsl 15 128 0 1 0 0 empty empty empty 0 -9 0 10 -262144
-1 -1 12352 1;
#X obj 539 383 pigpio_mcp3008 9 6 12 5;
#X connect 1 0 9 0;
#X connect 1 1 8 0;
#X connect 1 2 7 0;
#X connect 1 3 6 0;
#X connect 1 4 5 0;
#X connect 1 5 4 0;
#X connect 1 6 3 0;
#X connect 1 7 2 0;
#X connect 10 0 13 0;
#X connect 10 0 23 0;
#X connect 11 0 10 0;
#X connect 11 1 0 0;
#X connect 12 0 11 0;
#X connect 13 0 1 0;
#X connect 14 0 22 0;
#X connect 14 1 21 0;
#X connect 14 2 20 0;
#X connect 14 3 19 0;
#X connect 14 4 18 0;
#X connect 14 5 17 0;
#X connect 14 6 16 0;
#X connect 14 7 15 0;
#X connect 23 0 14 0;
