#N canvas 640 573 450 300 10;
#X msg 116 53 bang;
#X obj 49 174 f;
#X obj 64 154 tgl 15 0 empty empty empty 17 7 0 10 -262144 -1 -1 0
1;
#X msg 99 166 0;
#X obj 49 196 t f b;
#X floatatom 49 218 5 0 0 0 - - -;
#X obj 14 96 metro 1000;
#X obj 14 71 tgl 15 0 empty empty empty 17 7 0 10 -262144 -1 -1 1 1
;
#X msg 117 79 1;
#X obj 49 237 print;
#X connect 0 0 8 0;
#X connect 1 0 4 0;
#X connect 2 0 1 1;
#X connect 3 0 2 0;
#X connect 4 0 5 0;
#X connect 4 1 3 0;
#X connect 5 0 9 0;
#X connect 6 0 1 0;
#X connect 7 0 6 0;
#X connect 8 0 2 0;
