#N canvas 85 113 663 300 10;
#X obj 29 156 chorus_sdd_320;
#X obj 112 12 tgl 15 0 empty empty source 17 7 0 10 -262144 -1 -1 0
1;
#N canvas 168 109 450 300 chord 0;
#X obj 32 255 outlet~;
#X obj 125 126 phasor~ 100;
#X obj 211 124 phasor~ 200;
#X obj 42 155 *~ 0.2;
#X obj 125 156 *~ 0.2;
#X obj 211 154 *~ 0.2;
#X obj 305 156 *~ 0.2;
#X obj 305 126 phasor~ 400;
#X obj 41 125 phasor~ 50;
#X connect 1 0 4 0;
#X connect 2 0 5 0;
#X connect 3 0 0 0;
#X connect 4 0 0 0;
#X connect 5 0 0 0;
#X connect 6 0 0 0;
#X connect 7 0 6 0;
#X connect 8 0 3 0;
#X restore 173 30 pd chord;
#X obj 28 239 output~;
#X obj 112 46 == 0;
#X obj 30 97 *~;
#X obj 173 85 *~;
#X obj 29 58 *~ 0.5;
#X obj 29 28 phasor~ 200;
#X obj 266 23 loadbang;
#X msg 266 57 \; pd dsp 1;
#X text 224 135 chorus effect inspired by the Roland SDD-320 Dimension
D;
#X text 224 164 == Contact \, questions \, feedback \, bug report and
booze ==;
#X text 224 181 jnoe@hotmail.fr;
#X connect 0 0 3 0;
#X connect 0 1 3 1;
#X connect 1 0 6 1;
#X connect 1 0 4 0;
#X connect 2 0 6 0;
#X connect 4 0 5 1;
#X connect 5 0 0 0;
#X connect 5 0 0 1;
#X connect 6 0 0 1;
#X connect 6 0 0 0;
#X connect 7 0 5 0;
#X connect 8 0 7 0;
#X connect 9 0 10 0;
