#N canvas 223 92 873 879 10;
#X obj 573 653 vd~ \$0-del2;
#X obj 439 265 phasor~;
#X obj 461 414 *~ -1;
#X obj 461 442 +~ 1;
#X obj 441 472 min~;
#X obj 88 36 hradio 15 1 0 4 \$0-mode-s \$0-mode-r mode 0 -8 0 10 -262144
-1 -1 0;
#X obj 704 282 sel 0 1 2 3;
#X obj 146 418 delwrite~ \$0-del1 100;
#X obj 440 575 *~;
#X msg 439 207 0.25;
#X obj 20 41 tgl 15 0 \$0-bypass-s \$0-bypass-r bypass 17 7 0 10 -262144
-1 -1 0 1;
#X obj 20 207 line~;
#X obj 130 218 line~;
#X obj 131 276 *~;
#X obj 20 275 *~;
#X obj 130 166 == 0;
#X msg 20 180 \$1 10;
#X msg 130 191 \$1 10;
#X obj 595 418 *~ -1;
#X obj 594 444 +~ 1;
#X obj 574 474 min~;
#X obj 573 577 *~;
#X obj 628 62 loadbang;
#X obj 21 818 outlet~;
#X obj 440 813 outlet~;
#X obj 145 121 inlet~;
#X obj 300 120 inlet~;
#X obj 20 123 r \$0-bypass-s;
#X obj 704 248 r \$0-mode-s;
#X obj 284 280 *~;
#X obj 69 273 *~;
#X obj 639 126 s \$0-mode-r;
#X obj 628 155 s \$0-bypass-r;
#X obj 440 649 vd~ \$0-del1;
#X msg 628 92 0;
#X msg 486 206 0.5;
#X msg 704 320 5;
#X msg 735 320 10;
#X obj 589 544 line~;
#X msg 589 517 \$1 10;
#X obj 456 547 line~;
#X msg 456 520 \$1 10;
#X msg 772 322 15;
#X obj 304 423 delwrite~ \$0-del2 100;
#X obj 652 578 line~;
#X msg 652 551 \$1 10;
#X obj 441 627 +~;
#X obj 572 627 +~;
#X msg 714 516 5;
#X msg 683 518 7.5;
#X obj 439 147 sel 0 1 2 3;
#X obj 439 113 r \$0-mode-s;
#X obj 652 486 sel 0 1 2 3;
#X obj 652 452 r \$0-mode-s;
#X msg 652 519 10;
#X obj 130 464 lop~ 1000;
#X obj 283 464 lop~ 1000;
#X obj 440 690 hip~ 5000;
#X obj 572 688 hip~ 5000;
#X obj 439 762 *~ -1;
#X obj 572 725 *~ -1;
#X obj 130 369 *~ 0.4;
#X obj 283 375 *~ 0.4;
#X obj 574 369 wrap~;
#X obj 573 344 +~ 0.5;
#X obj 224 82 inlet mode;
#X connect 0 0 58 0;
#X connect 0 0 24 0;
#X connect 1 0 2 0;
#X connect 1 0 4 0;
#X connect 1 0 64 0;
#X connect 2 0 3 0;
#X connect 3 0 4 1;
#X connect 4 0 8 0;
#X connect 6 0 36 0;
#X connect 6 1 37 0;
#X connect 6 2 37 0;
#X connect 6 3 42 0;
#X connect 8 0 46 0;
#X connect 9 0 1 0;
#X connect 11 0 14 0;
#X connect 11 0 30 0;
#X connect 12 0 13 0;
#X connect 12 0 29 0;
#X connect 13 0 61 0;
#X connect 14 0 23 0;
#X connect 15 0 17 0;
#X connect 16 0 11 0;
#X connect 17 0 12 0;
#X connect 18 0 19 0;
#X connect 19 0 20 1;
#X connect 20 0 21 0;
#X connect 21 0 47 0;
#X connect 22 0 34 0;
#X connect 25 0 14 1;
#X connect 25 0 13 1;
#X connect 26 0 30 1;
#X connect 26 0 29 1;
#X connect 27 0 16 0;
#X connect 27 0 15 0;
#X connect 28 0 6 0;
#X connect 29 0 62 0;
#X connect 30 0 24 0;
#X connect 33 0 57 0;
#X connect 33 0 23 0;
#X connect 34 0 31 0;
#X connect 34 0 32 0;
#X connect 35 0 1 0;
#X connect 36 0 41 0;
#X connect 36 0 39 0;
#X connect 37 0 41 0;
#X connect 37 0 39 0;
#X connect 38 0 21 1;
#X connect 39 0 38 0;
#X connect 40 0 8 1;
#X connect 41 0 40 0;
#X connect 42 0 39 0;
#X connect 42 0 41 0;
#X connect 44 0 47 1;
#X connect 44 0 46 1;
#X connect 45 0 44 0;
#X connect 46 0 33 0;
#X connect 47 0 0 0;
#X connect 48 0 45 0;
#X connect 49 0 45 0;
#X connect 50 0 9 0;
#X connect 50 1 9 0;
#X connect 50 2 35 0;
#X connect 50 3 35 0;
#X connect 51 0 50 0;
#X connect 52 0 54 0;
#X connect 52 1 54 0;
#X connect 52 2 49 0;
#X connect 52 3 48 0;
#X connect 53 0 52 0;
#X connect 54 0 45 0;
#X connect 55 0 23 0;
#X connect 56 0 24 0;
#X connect 57 0 59 0;
#X connect 58 0 60 0;
#X connect 59 0 24 0;
#X connect 60 0 23 0;
#X connect 61 0 23 0;
#X connect 61 0 7 0;
#X connect 61 0 55 0;
#X connect 62 0 43 0;
#X connect 62 0 56 0;
#X connect 62 0 24 0;
#X connect 63 0 18 0;
#X connect 63 0 20 0;
#X connect 64 0 63 0;
#X connect 65 0 5 0;
#X coords 0 -1 1 1 150 50 1 10 10;
