#N canvas 0 55 1920 985 10;
#X obj 373 578 modulate~, f 11;
#X obj 657 628 modulate~, f 11;
#X obj 905 669 modulate~, f 11;
#X obj 531 242 offset, f 9;
#X obj 803 276 offset, f 9;
#X obj 803 251 r freq;
#X obj 1048 309 offset;
#X obj 1048 265 r freq;
#X obj 406 275 selector, f 17;
#X obj 688 313 selector, f 17;
#X obj 937 407 selector, f 11;
#N canvas 1875 542 1936 1000 subosc 0;
#X obj 20 166 +~;
#X obj 20 194 outlet~;
#X obj 80 68 nbx 5 14 0 2 0 1 empty empty empty 0 -8 0 10 -262144 -1
-1 0.5 256;
#X obj 165 71 smooth~;
#X floatatom 245 63 5 0 0 0 - - -;
#X obj 20 106 expr~ $v1 * $f2 * $v3, f 25;
#X obj 165 28 inlet;
#X obj 80 27 inlet;
#X obj 32 135 inlet~;
#X obj 20 26 inlet~;
#X connect 0 0 1 0;
#X connect 2 0 5 1;
#X connect 3 0 5 2;
#X connect 5 0 0 0;
#X connect 6 0 3 0;
#X connect 6 0 4 0;
#X connect 7 0 2 0;
#X connect 8 0 0 1;
#X connect 9 0 5 0;
#X restore 90 448 pd subosc;
#X obj 124 398 nbx 4 14 0.1 2 0 0 empty empty osc_vol 0 -8 0 10 -262144
-1 -1 0.1 256;
#X obj 507 411 *;
#X obj 770 479 *;
#X obj 971 564 *;
#X text 1001 564 don't modulate if nothing selected;
#X obj 986 518 t b f;
#X obj 794 450 t b f;
#X obj 529 371 t b f;
#X obj 722 139 negate;
#N canvas 0 50 450 250 (subpatch) 0;
#X array output 100 float 1;
#A 0 0.349488 0.343028 0.335941 0.32825 0.319978 0.311151 0.301796
0.291942 0.281623 0.270872 0.259723 0.248211 0.236374 0.224247 0.21187
0.199277 0.186509 0.173602 0.160592 0.147516 0.134407 0.121301 0.108234
0.0952364 0.0823389 0.0695722 0.0569639 0.0445448 0.0323394 0.0203741
0.00867439 -0.00273882 -0.0138423 -0.024615 -0.0350371 -0.0450894 -0.0547559
-0.0640196 -0.0728652 -0.0812796 -0.0892504 -0.0967659 -0.103816 -0.110394
-0.116492 -0.122105 -0.127228 -0.131861 -0.136003 -0.139653 -0.142816
-0.145497 -0.147699 -0.149433 -0.150706 -0.15153 -0.151918 -0.151883
-0.151439 -0.150605 -0.149396 -0.147833 -0.145934 -0.143719 -0.141276
-0.138555 -0.135579 -0.132369 -0.128947 -0.125337 -0.121558 -0.117633
-0.113584 -0.10943 -0.105193 -0.100892 -0.0965464 -0.0921731 -0.0877898
-0.0834131 -0.0790589 -0.07474 -0.070471 -0.0662628 -0.0621278 -0.0580759
-0.0541156 -0.050256 -0.0465035 -0.0428646 -0.0393444 -0.0359474 -0.0326772
-0.0295364 -0.0265277 -0.0236513 -0.0209092 -0.0183002 -0.0158245 -0.0134809
;
#X coords 0 1 99 -1 200 140 1;
#X restore 1230 155 graph;
#X obj 1237 396 tabwrite~ output;
#X obj 1237 350 r~ out;
#X obj 1247 439 loadbang;
#X msg 1247 471 \; pd dsp 1;
#X obj 90 483 *~ 0.8;
#X obj 1285 349 metro 100;
#X obj 1285 325 loadbang, f 9;
#X obj 905 694 s~ modulated;
#X obj 158 424 r sub-osc;
#X obj 722 105 r lfo;
#X obj 286 69 r osc1_freq;
#X obj 582 213 r osc2_freq;
#X obj 855 249 r osc3_freq;
#X obj 1081 285 r osc4_freq;
#X obj 97 170 r osc1_sin;
#X obj 159 186 r osc1_tri;
#N canvas 552 107 1920 984 gpioRouter 0;
#X obj 309 -30325 unpack f f f f f f f f;
#X obj 670 -30465 pigpio_init;
#X obj 312 -30358 pigpio_mcp3008 25 6 12 5;
#X obj 598 -30520 loadbang;
#X obj 265 -30017 pigpio_mcp23s17 24 16 20 21;
#X obj 265 -29993 unpack f f f f f f f f f f f f f f f f;
#X obj 831 -30019 unpack f f f f f f f f f f f f f f f f;
#X obj 539 -30101 t b b;
#X obj 601 -30440 t b b;
#X obj 578 -29954 s sub-osc;
#X obj 350 -29947 s lfo;
#X obj 324 -29926 s vco;
#X obj 758 -30374 pigpio_mcp3008 9 6 12 5;
#X obj 779 -30240 s osc1_freq;
#X obj 807 -30267 s osc2_freq;
#X obj 508 -30204 s osc3_freq;
#X obj 211 -30166 s osc4_freq;
#X obj 877 -29817 s osc1_sin;
#X obj 771 -29818 s osc1_tri;
#X obj 920 -30318 s osc2_amt;
#X obj 254 -30192 s osc3_amt;
#X obj 901 -30294 s osc4_amt;
#X obj 891 -30269 s filter-cutoff;
#X obj 757 -30213 s filter-resonance;
#X obj 516 -30230 s flanger-speed;
#X obj 334 -30244 s flanger-intensity;
#X obj 538 -30252 s flanger-feedback;
#X obj 289 -30220 s flanger-mix;
#X obj 1039 -29879 s osc1_octave1;
#X obj 1007 -29828 s osc1_octave2;
#X obj 1028 -29856 s osc1_octave3;
#X obj 832 -29971 expr $f1 || $f2;
#X obj 726 -29970 expr $f1 || $f2;
#X obj 855 -29941 s osc4_sin;
#X obj 725 -29942 s osc4_tri;
#X obj 614 -29912 s osc2_octave1;
#X obj 596 -29888 s osc2_octave2;
#X obj 590 -29863 s osc2_octave3;
#X obj 297 -29904 s osc3_octave1;
#X obj 213 -29857 s osc3_octave2;
#X obj 252 -29882 s osc3_octave3;
#X obj 88 -29792 s osc4_octave3;
#X obj 170 -29837 s osc4_octave1;
#X obj 133 -29817 s osc4_octave2;
#X obj 535 -30129 metro 10;
#X obj 600 -30465 metro 10;
#X obj 477 -29841 s osc3_tri;
#X obj 468 -29786 s osc3_sin;
#X obj 468 -29813 expr $f1 || $f2;
#X obj 476 -29870 expr $f1 || $f2;
#X obj 554 -30274 s vol;
#X obj 1172 -29848 expr $f1 || $f2;
#X obj 1186 -29975 expr $f1 || $f2;
#X obj 1173 -29821 s osc2_sin;
#X obj 1207 -29946 s osc2_tri;
#X obj 827 -30050 pigpio_mcp23s17 13 16 20 21;
#X obj 770 -29846 expr $f1 || $f2;
#X obj 875 -29848 expr $f1 || $f2;
#X obj 756 -30351 unpack f f f f f f;
#X obj 535 -30158 loadbang;
#X obj 599 -30496 t b b;
#X text 221 -30360 MCP3008 ICs;
#N canvas 1912 63 1936 1000 octaveselect 0;
#X obj 201 144 octave;
#X obj 201 74 r osc2_octave1;
#X obj 217 97 r osc2_octave2;
#X obj 234 118 r osc2_octave3;
#X obj 202 197 s osc2_octave;
#X obj 31 299 octave;
#X obj 32 223 r osc3_octave1;
#X obj 31 351 s osc3_octave;
#X obj 48 246 r osc3_octave2;
#X obj 65 267 r osc3_octave3;
#X obj 39 135 octave;
#X obj 199 305 octave;
#X obj 199 229 r osc4_octave1;
#X obj 215 252 r osc4_octave2;
#X obj 232 273 r osc4_octave3;
#X obj 200 357 s osc4_octave;
#X obj 31 326 debounce;
#X obj 39 161 debounce;
#X obj 200 331 debounce;
#X obj 39 59 r osc1_octave1;
#X obj 55 82 r osc1_octave2;
#X obj 72 103 r osc1_octave3;
#X obj 38 186 s osc1_octave;
#X obj 201 168 debounce;
#X connect 0 0 23 0;
#X connect 1 0 0 0;
#X connect 2 0 0 1;
#X connect 3 0 0 2;
#X connect 5 0 16 0;
#X connect 6 0 5 0;
#X connect 8 0 5 1;
#X connect 9 0 5 2;
#X connect 10 0 17 0;
#X connect 11 0 18 0;
#X connect 12 0 11 0;
#X connect 13 0 11 1;
#X connect 14 0 11 2;
#X connect 16 0 7 0;
#X connect 17 0 22 0;
#X connect 18 0 15 0;
#X connect 19 0 10 0;
#X connect 20 0 10 1;
#X connect 21 0 10 2;
#X connect 23 0 4 0;
#X restore 261 -30496 pd octaveselect;
#X text 44 -30497 Combine and debounce octave inputs;
#X text 759 -30466 Initialise GPIO on startup;
#X text 172 -30013 MCP23S17 ICs;
#X obj 397 -29870 s osc2_both;
#X obj 1172 -29876 r osc2_both;
#X obj 1186 -30009 r osc2_both;
#X connect 0 0 16 0;
#X connect 0 1 20 0;
#X connect 0 2 27 0;
#X connect 0 3 25 0;
#X connect 0 4 15 0;
#X connect 0 5 24 0;
#X connect 0 6 26 0;
#X connect 0 7 50 0;
#X connect 2 0 0 0;
#X connect 3 0 60 0;
#X connect 4 0 5 0;
#X connect 5 0 41 0;
#X connect 5 1 43 0;
#X connect 5 2 42 0;
#X connect 5 3 39 0;
#X connect 5 4 40 0;
#X connect 5 5 38 0;
#X connect 5 6 11 0;
#X connect 5 7 10 0;
#X connect 5 8 66 0;
#X connect 5 9 48 0;
#X connect 5 10 49 0;
#X connect 5 11 49 1;
#X connect 5 11 48 1;
#X connect 5 12 37 0;
#X connect 5 13 36 0;
#X connect 5 14 35 0;
#X connect 5 15 9 0;
#X connect 6 0 31 0;
#X connect 6 0 32 0;
#X connect 6 1 32 1;
#X connect 6 2 31 1;
#X connect 6 8 56 0;
#X connect 6 9 56 1;
#X connect 6 9 57 1;
#X connect 6 10 57 0;
#X connect 6 11 29 0;
#X connect 6 12 30 0;
#X connect 6 13 28 0;
#X connect 6 14 51 1;
#X connect 6 15 52 1;
#X connect 7 0 4 0;
#X connect 7 1 55 0;
#X connect 8 0 2 0;
#X connect 8 1 12 0;
#X connect 12 0 58 0;
#X connect 31 0 33 0;
#X connect 32 0 34 0;
#X connect 44 0 7 0;
#X connect 45 0 8 0;
#X connect 48 0 47 0;
#X connect 49 0 46 0;
#X connect 51 0 53 0;
#X connect 52 0 54 0;
#X connect 55 0 6 0;
#X connect 56 0 18 0;
#X connect 57 0 17 0;
#X connect 58 0 23 0;
#X connect 58 1 13 0;
#X connect 58 2 14 0;
#X connect 58 3 22 0;
#X connect 58 4 21 0;
#X connect 58 5 19 0;
#X connect 59 0 44 0;
#X connect 60 0 45 0;
#X connect 60 1 1 0;
#X connect 67 0 51 0;
#X connect 68 0 52 0;
#X restore 194 581 pd gpioRouter;
#N canvas 1393 643 1920 984 vco 0;
#X obj 35 156 metro 10;
#X obj 105 208 snapshot~;
#X obj 105 259 *;
#X obj 254 36 r osc2_freq;
#X obj 105 177 selector, f 20;
#X obj 105 103 r osc2_sin;
#X obj 134 127 r osc2_tri;
#X obj 254 139 * 0.01;
#X obj 281 60 r osc2_octave;
#X obj 281 86 * 1.5;
#X obj 105 289 s vco_freq;
#X obj 35 123 loadbang;
#X obj 254 113 +, f 5;
#X obj 120 232 r osc2_amt;
#X obj 192 149 loadbang;
#X connect 0 0 1 0;
#X connect 1 0 2 0;
#X connect 2 0 10 0;
#X connect 3 0 12 0;
#X connect 4 0 1 0;
#X connect 5 0 4 0;
#X connect 6 0 4 1;
#X connect 7 0 4 4;
#X connect 8 0 9 0;
#X connect 9 0 12 1;
#X connect 11 0 0 0;
#X connect 12 0 7 0;
#X connect 13 0 2 1;
#X connect 14 0 4 3;
#X restore 195 604 pd vco;
#X obj 527 345 r osc2_amt;
#X obj 794 423 r osc3_amt;
#X obj 1007 487 r osc4_amt;
#N canvas 8 63 1920 984 effects 0;
#X obj 205 326 chorus_sdd_320;
#X obj 205 403 compressor~;
#X obj 331 409 compressor~;
#X obj 204 821 dac~;
#X obj 374 322 loadbang;
#X obj 205 448 *~ 0.5;
#X obj 331 450 *~ 0.5;
#X obj 205 501 +~;
#X obj 316 502 -~;
#X obj 316 543 *~;
#X obj 204 639 +~;
#X obj 301 642 -~;
#X obj 359 503 hsl 128 15 0 2 0 1 empty empty side -2 -8 0 10 -262144
-1 -1 9900 1;
#X obj 205 544 *~;
#X obj 55 488 hsl 128 15 0 1 0 1 empty empty mid -2 -8 0 10 -262144
-1 -1 12700 1;
#X msg 374 350 threshold -12 \, ratio 40 \, response 40 \, gain 0 \,
rmspeak 0 \, lookahead 5;
#X obj 301 721 s~ out;
#X msg 141 292 3;
#X obj 141 260 loadbang;
#X obj 203 684 smoothvol~;
#X obj 301 687 smoothvol~;
#X obj 395 751 hsl 128 15 0 0.1 0 1 empty empty pan_speed -2 -8 0 10
-262144 -1 -1 3600 1;
#X obj 393 788 hsl 128 15 0 1 0 1 empty empty pan_amplitude -2 -8 0
10 -262144 -1 -1 8300 1;
#X obj 203 780 panner~;
#X obj 239 218 bob~, f 19;
#X obj 350 101 / 25;
#X obj 217 120 pack 0 50;
#X obj 217 145 line~;
#X obj 350 129 line~;
#X obj 234 286 hv_flanger2 10;
#X msg 483 205 speed \$1;
#X msg 560 207 intensity \$1;
#X msg 667 201 feedback \$1;
#X msg 798 200 mix \$1;
#X obj 315 260 t a;
#X obj 238 192 r~ modulated;
#X obj 350 43 r filter-cutoff;
#X obj 217 68 r filter-resonance;
#X obj 460 137 r flanger-speed;
#X obj 559 165 r flanger-intensity;
#X obj 718 165 r flanger-feedback;
#X obj 850 162 r flanger-mix;
#X obj 358 663 r vol;
#X obj 260 658 r vol;
#X text 333 641 Right;
#X text 157 641 Left;
#X obj 350 69 scalef 2 200;
#X obj 217 94 scalef 100 10000;
#X obj 460 164 scalef 0.2 20;
#X obj 290 890 writesf~ 2;
#X msg 392 867 start;
#X msg 424 902 stop;
#X msg 486 844 open /home/patch/mod12.wav;
#X connect 0 0 1 0;
#X connect 0 1 2 0;
#X connect 1 0 5 0;
#X connect 2 0 6 0;
#X connect 4 0 15 0;
#X connect 5 0 7 0;
#X connect 5 0 8 0;
#X connect 6 0 7 1;
#X connect 6 0 8 1;
#X connect 7 0 13 0;
#X connect 8 0 9 0;
#X connect 9 0 10 1;
#X connect 9 0 11 1;
#X connect 10 0 19 0;
#X connect 11 0 20 0;
#X connect 12 0 9 1;
#X connect 13 0 10 0;
#X connect 13 0 11 0;
#X connect 14 0 13 1;
#X connect 15 0 2 1;
#X connect 15 0 1 1;
#X connect 17 0 0 1;
#X connect 18 0 17 0;
#X connect 19 0 23 0;
#X connect 20 0 16 0;
#X connect 20 0 23 1;
#X connect 21 0 23 2;
#X connect 22 0 23 3;
#X connect 23 0 3 0;
#X connect 23 0 49 0;
#X connect 23 1 3 1;
#X connect 23 1 49 1;
#X connect 24 0 29 0;
#X connect 24 0 29 1;
#X connect 25 0 28 0;
#X connect 26 0 27 0;
#X connect 27 0 24 1;
#X connect 28 0 24 2;
#X connect 29 0 0 0;
#X connect 29 1 0 2;
#X connect 30 0 34 0;
#X connect 31 0 34 0;
#X connect 32 0 34 0;
#X connect 33 0 34 0;
#X connect 34 0 29 2;
#X connect 35 0 24 0;
#X connect 36 0 46 0;
#X connect 37 0 47 0;
#X connect 38 0 48 0;
#X connect 39 0 31 0;
#X connect 40 0 32 0;
#X connect 41 0 33 0;
#X connect 42 0 20 1;
#X connect 43 0 19 1;
#X connect 46 0 25 0;
#X connect 47 0 26 0;
#X connect 48 0 30 0;
#X connect 50 0 49 0;
#X connect 51 0 49 0;
#X connect 52 0 49 0;
#X restore 195 626 pd effects;
#X obj 190 211 r osc1_octave;
#X obj 898 363 r osc4_sin;
#X obj 937 339 r osc4_tri;
#X obj 435 238 r osc2_octave;
#X obj 708 276 r osc3_octave;
#X obj 970 364 r osc4_octave;
#X obj 683 248 r osc3_tri;
#X obj 634 275 r osc3_sin;
#X obj 357 241 r osc2_sin;
#X obj 418 215 r osc2_tri;
#X obj 97 276 selector 2;
#X obj 187 280 selector, f 11;
#X obj 250 311 s master_freq;
#X obj 531 216 r freq;
#X obj 588 410 r vco;
#X obj 490 441 expr $f1 * (1-$f2);
#X obj 246 236 r freq;
#X obj 584 93 r vco;
#X obj 372 66 r vco;
#X obj 428 69 r vco_freq;
#X obj 320 107 expr $f1 + $f2 * $f3;
#X obj 322 133 s freq;
#X obj 310 686 s overdrive;
#X obj 511 488 r overdrive;
#X obj 311 651 hsl 128 15 0 100 0 0 empty empty empty -2 -8 0 10 -262144
-1 -1 0 1;
#X obj 462 546 expr $f1 * (1+$f2);
#X obj 517 515 t b f;
#X obj 829 491 r overdrive;
#X obj 788 554 expr $f1 * (1+$f2);
#X obj 837 521 t b f;
#X obj 1031 598 r overdrive;
#X obj 1008 674 expr $f1 * (1+$f2);
#X obj 1055 631 t b f;
#X obj 651 142 pigpio 17;
#X obj 532 128 pigpio 27;
#X obj 166 311 pigpio 22;
#X obj 974 443 freqbeat 4;
#X obj 712 347 freqbeat 3;
#X obj 172 455 pigpio 2;
#X obj 416 311 freqbeat 10;
#X obj 722 165 t f f f, f 30;
#X text 722 81 LFO toggle;
#X text 285 47 Base frequency calc;
#X text 189 396 Sub-oscillator mixer;
#X text 96 149 OSC1 and sub-oscillator;
#X text 357 216 OSC2;
#X text 690 223 OSC3;
#X text 913 314 OSC4;
#X text 1048 442 Flash OSC4 LED;
#X text 435 469 Disable osc if acting as VCO source;
#X text 25 626 Audio filtering and output;
#X text 24 601 VCO calculations;
#X text 24 575 GPIO routing;
#X connect 0 0 1 0;
#X connect 1 0 2 0;
#X connect 2 0 29 0;
#X connect 3 0 8 4;
#X connect 4 0 9 4;
#X connect 5 0 4 0;
#X connect 6 0 10 4;
#X connect 7 0 6 0;
#X connect 8 0 0 1;
#X connect 8 1 83 0;
#X connect 8 2 13 0;
#X connect 8 2 83 1;
#X connect 9 0 1 1;
#X connect 9 1 81 0;
#X connect 9 2 81 1;
#X connect 9 2 14 0;
#X connect 10 0 2 1;
#X connect 10 1 80 0;
#X connect 10 2 80 1;
#X connect 10 2 15 0;
#X connect 11 0 26 0;
#X connect 12 0 11 2;
#X connect 13 0 59 0;
#X connect 14 0 72 0;
#X connect 15 0 75 0;
#X connect 17 0 15 0;
#X connect 17 1 15 1;
#X connect 18 0 14 0;
#X connect 18 1 14 1;
#X connect 19 0 13 0;
#X connect 19 1 13 1;
#X connect 20 0 84 0;
#X connect 23 0 22 0;
#X connect 24 0 25 0;
#X connect 26 0 0 0;
#X connect 27 0 22 0;
#X connect 28 0 27 0;
#X connect 30 0 82 1;
#X connect 30 0 11 3;
#X connect 31 0 20 0;
#X connect 31 0 77 1;
#X connect 32 0 64 0;
#X connect 33 0 3 2;
#X connect 34 0 4 2;
#X connect 35 0 6 2;
#X connect 36 0 55 0;
#X connect 36 0 54 0;
#X connect 37 0 55 1;
#X connect 37 0 54 1;
#X connect 40 0 19 0;
#X connect 41 0 18 0;
#X connect 42 0 17 0;
#X connect 44 0 55 3;
#X connect 44 0 54 3;
#X connect 45 0 10 0;
#X connect 46 0 10 1;
#X connect 47 0 8 3;
#X connect 48 0 9 3;
#X connect 49 0 10 3;
#X connect 50 0 9 1;
#X connect 51 0 9 0;
#X connect 52 0 8 0;
#X connect 53 0 8 1;
#X connect 54 0 11 0;
#X connect 55 0 11 1;
#X connect 55 1 79 1;
#X connect 55 2 56 0;
#X connect 57 0 3 0;
#X connect 58 0 59 1;
#X connect 59 0 69 0;
#X connect 60 0 54 4;
#X connect 60 0 55 4;
#X connect 61 0 78 1;
#X connect 62 0 64 1;
#X connect 63 0 64 2;
#X connect 64 0 65 0;
#X connect 67 0 70 0;
#X connect 68 0 66 0;
#X connect 69 0 0 2;
#X connect 70 0 69 0;
#X connect 70 1 69 1;
#X connect 71 0 73 0;
#X connect 72 0 1 2;
#X connect 73 0 72 0;
#X connect 73 1 72 1;
#X connect 74 0 76 0;
#X connect 75 0 2 2;
#X connect 76 0 75 0;
#X connect 76 1 75 1;
#X connect 84 0 3 1;
#X connect 84 1 4 1;
#X connect 84 2 6 1;
