#N canvas 398 221 1834 948 10;
#X obj 535 161 print invalid_input;
#X obj 385 91 inlet;
#X obj 297 91 inlet;
#X obj 385 125 route sin saw square;
#X obj 362 258 osc~;
#X obj 343 487 outlet~;
#X obj 466 170 phasor~;
#X obj 314 424 *~ 0;
#X obj 382 416 *~ 0;
#X msg 437 76 sin;
#X msg 488 76 saw;
#X obj 391 186 f 1;
#X obj 423 186 f 1;
#X obj 466 265 expr~ $v1 * 2 -1;
#X obj 466 330 lop~ 890;
#X connect 1 0 3 0;
#X connect 2 0 4 0;
#X connect 2 0 6 0;
#X connect 3 0 11 0;
#X connect 3 1 12 0;
#X connect 3 3 0 0;
#X connect 4 0 7 0;
#X connect 6 0 13 0;
#X connect 7 0 5 0;
#X connect 8 0 5 0;
#X connect 9 0 3 0;
#X connect 10 0 3 0;
#X connect 11 0 7 1;
#X connect 12 0 8 1;
#X connect 13 0 8 0;
