#N canvas 968 425 688 521 12;
#X obj 76 84 pigpio_init;
#X obj 81 46 bng 15 250 50 0 empty empty empty 17 7 0 10 -262144 -1
-1;
#X floatatom 62 -126 5 0 0 0 - - -;
#X msg 62 -101;
#X symbolatom 62 -75 10 0 0 0 - - -;
#X symbolatom 61 -112 10 0 0 0 - - -;
#X msg 61 -87;
#X obj 277 131 tgl 15 0 empty empty empty 17 7 0 10 -262144 -1 -1 0
1;
#X obj 103 244 pigpio 2;
#X obj 183 245 pigpio 3;
#X obj 270 246 pigpio 4;
#X obj 348 250 pigpio 17;
#X obj 432 251 pigpio 27;
#X obj 512 251 pigpio 22;
#X obj 463 170 pigpio 10;
#X connect 1 0 0 0;
#X connect 2 0 3 0;
#X connect 3 0 4 0;
#X connect 5 0 6 0;
#X connect 7 0 8 1;
#X connect 7 0 9 1;
#X connect 7 0 10 1;
#X connect 7 0 11 1;
#X connect 7 0 12 1;
#X connect 7 0 13 1;
#X connect 7 0 14 1;
