#N canvas 0 55 1920 985 12;
#X obj 814 123 pigpio_init;
#X obj 814 90 loadbang;
#X msg 113 153 2;
#X msg 149 152 3;
#X msg 191 152 4;
#X msg 297 149 10;
#X msg 262 150 27;
#X msg 226 150 22;
#X msg 336 149 17;
#X obj 113 246 pigpio;
#X obj 206 217 tgl 15 0 empty empty empty 17 7 0 10 -262144 -1 -1 0
1;
#X obj 418 95 bng 15 250 50 0 empty empty empty 17 7 0 10 -262144 -1
-1;
#X obj 113 102 sel 0 1 2 3 4 5 6;
#X obj 418 150 f;
#X obj 489 157 + 1;
#X obj 540 216 mod 7;
#X obj 540 291 s counter;
#X obj 113 72 r counter;
#X obj 591 229 tgl 15 0 empty empty empty 17 7 0 10 -262144 -1 -1 0
1;
#X obj 540 260 *;
#X obj 143 392 pigpio 10;
#X obj 221 390 pigpio 17;
#X obj 255 333 tgl 15 0 empty empty empty 17 7 0 10 -262144 -1 -1 1
1;
#X obj 300 390 pigpio 27;
#X obj 384 392 pigpio 22;
#X obj 172 443 pigpio 2;
#X obj 247 443 pigpio 3;
#X obj 319 446 pigpio 4;
#X obj 377 216 mod 2;
#X obj 418 118 metro 500;
#X obj 461 76 tgl 15 0 empty empty empty 17 7 0 10 -262144 -1 -1 0
1;
#X connect 1 0 0 0;
#X connect 2 0 9 0;
#X connect 3 0 9 0;
#X connect 4 0 9 0;
#X connect 5 0 9 0;
#X connect 6 0 9 0;
#X connect 7 0 9 0;
#X connect 8 0 9 0;
#X connect 10 0 9 1;
#X connect 11 0 29 0;
#X connect 12 0 2 0;
#X connect 12 1 3 0;
#X connect 12 2 4 0;
#X connect 12 3 7 0;
#X connect 12 4 6 0;
#X connect 12 5 5 0;
#X connect 12 6 8 0;
#X connect 13 0 14 0;
#X connect 13 0 15 0;
#X connect 13 0 28 0;
#X connect 14 0 13 1;
#X connect 15 0 19 0;
#X connect 17 0 12 0;
#X connect 18 0 19 1;
#X connect 19 0 16 0;
#X connect 22 0 20 1;
#X connect 22 0 21 1;
#X connect 22 0 23 1;
#X connect 22 0 24 1;
#X connect 22 0 25 1;
#X connect 22 0 26 1;
#X connect 22 0 27 1;
#X connect 28 0 22 0;
#X connect 29 0 13 0;
#X connect 30 0 29 1;
