#N canvas 799 279 862 626 24;
#X obj 119 508 outlet~;
#X obj 281 510 outlet~;
#X obj 206 13 inlet~;
#X obj 463 244 *~;
#X obj 557 247 *~;
#X msg 727 124 0.25;
#X obj 714 79 loadbang;
#X obj 418 449 *~ 0;
#X obj 560 456 *~ 0;
#X obj 132 428 *~ 1;
#X obj 197 426 *~ 1;
#X obj 376 12 inlet;
#X obj 333 65 == 0;
#X obj 418 63 == 1;
#X obj 632 87 bng 40 250 50 0 empty empty empty 17 7 0 10 -262144 -1
-1;
#X obj 535 178 osc~ 9;
#X obj 672 175 osc~ 9;
#X obj 265 305 *~ 0.7;
#X obj 371 307 *~ 0.7;
#X obj 479 309 *~ 0.3;
#X obj 587 310 *~ 0.3;
#X obj 522 31 inlet speed;
#X connect 2 0 3 0;
#X connect 2 0 4 0;
#X connect 2 0 9 0;
#X connect 2 0 10 0;
#X connect 2 0 17 0;
#X connect 2 0 18 0;
#X connect 3 0 19 0;
#X connect 4 0 20 0;
#X connect 5 0 16 1;
#X connect 6 0 5 0;
#X connect 7 0 0 0;
#X connect 8 0 1 0;
#X connect 9 0 0 0;
#X connect 10 0 1 0;
#X connect 11 0 12 0;
#X connect 11 0 13 0;
#X connect 12 0 9 1;
#X connect 12 0 10 1;
#X connect 13 0 7 1;
#X connect 13 0 8 1;
#X connect 14 0 5 0;
#X connect 15 0 3 1;
#X connect 16 0 4 1;
#X connect 17 0 7 0;
#X connect 18 0 8 0;
#X connect 19 0 7 0;
#X connect 20 0 8 0;
#X connect 21 0 15 0;
#X connect 21 0 16 0;
