#N canvas 1666 252 1862 823 10;
#X obj 415 219 inlet;
#X obj 100 255 inlet~;
#X obj 351 294 *~;
#X obj 351 183 expr~ ($v1 + 1) / 2;
#X text 481 183 convert to unipolar;
#X text 145 256 signal;
#X text 351 126 mod freq;
#X text 456 218 mod amt (0-1);
#X obj 336 364 *~;
#X obj 321 534 outlet~;
#X text 375 534 mixed signal;
#X obj 99 415 expr~ $v1 * (1 - $v2);
#X obj 321 498 +~;
#X text 31 394 mix signal with modulated signal;
#X obj 415 288 s~ \$0-mod-amount;
#X obj 221 364 r~ \$0-mod-amount;
#X obj 351 146 inlet~;
#X obj 415 251 smooth~;
#X connect 0 0 17 0;
#X connect 1 0 8 0;
#X connect 1 0 11 0;
#X connect 2 0 8 1;
#X connect 3 0 2 0;
#X connect 8 0 12 1;
#X connect 11 0 12 0;
#X connect 12 0 9 0;
#X connect 15 0 11 1;
#X connect 16 0 3 0;
#X connect 17 0 14 0;
#X connect 17 0 2 1;
