#N canvas 199 497 1053 611 10;
#X obj 130 250 float;
#X obj 199 251 + 1;
#X obj 130 310 mod 8;
#X obj 130 200 metro;
#X obj 289 421 zl nth;
#X obj 205 352 t b f;
#X obj 310 371 + 1;
#X obj 219 461 mtof;
#X obj 290 310 inlet;
#X text 390 320 list of midi frequencies;
#X obj 220 490 outlet;
#X text 270 490 output frequency;
#X floatatom 130 380 5 0 0 0 - - -, f 5;
#X obj 70 160 bng 15 250 50 1 empty empty empty 17 7 0 10 #fcfcfc #000000
#000000;
#X obj 150 100 inlet;
#X text 200 100 speed;
#X obj 150 130 t b f;
#X floatatom 240 540 5 0 0 0 - - -, f 5;
#X connect 0 0 2 0;
#X connect 0 0 1 0;
#X connect 1 0 0 1;
#X connect 2 0 5 0;
#X connect 2 0 12 0;
#X connect 3 0 0 0;
#X connect 4 0 7 0;
#X connect 5 0 4 0;
#X connect 5 1 6 0;
#X connect 6 0 4 1;
#X connect 7 0 10 0;
#X connect 7 0 17 0;
#X connect 8 0 4 0;
#X connect 13 0 3 0;
#X connect 14 0 16 0;
#X connect 16 0 3 1;
#X connect 16 1 3 1;
