#N canvas 1376 556 1043 615 10;
#X obj 181 60 inlet;
#X text 230 60 volume \, 0-1;
#X obj 130 160 *~;
#X obj 130 60 inlet~;
#X obj 130 200 outlet~;
#X text 190 200 mixed;
#X obj 181 100 smooth~;
#X connect 0 0 6 0;
#X connect 2 0 4 0;
#X connect 3 0 2 0;
#X connect 6 0 2 1;
