#N canvas 1194 394 1410 1029 12;
#X obj 189 188 snapshot~;
#X obj 109 136 metro 10;
#X obj 270 284 +;
#X obj 270 254 t b f;
#X obj 414 192 *, f 8;
#X obj 435 150 t b f;
#X obj 109 107 loadbang;
#X obj 435 111 inlet enable;
#X obj 414 72 inlet depth;
#X obj 158 33 inlet~ vco;
#X obj 32 33 inlet frequency;
#X obj 270 325 outlet modulated;
#X obj 32 62 s \$0-freq;
#X obj 158 62 s~ \$0-vco;
#X obj 189 159 r~ \$0-vco;
#X obj 192 254 r \$0-freq;
#X obj 70 108 bng 15 250 50 0 empty empty empty 17 7 0 10 -262144 -1
-1;
#X floatatom 8 87 5 0 0 0 - - -;
#X floatatom 193 362 5 0 0 0 - - -;
#X floatatom 127 246 5 0 0 0 - - -;
#X floatatom 436 248 5 0 0 0 - - -;
#X obj 270 222 expr ($f1-1) * $f2;
#X connect 0 0 19 0;
#X connect 0 0 21 0;
#X connect 1 0 0 0;
#X connect 2 0 18 0;
#X connect 2 0 11 0;
#X connect 3 0 2 0;
#X connect 3 1 2 1;
#X connect 4 0 20 0;
#X connect 4 0 21 1;
#X connect 5 0 4 0;
#X connect 5 1 4 1;
#X connect 6 0 1 0;
#X connect 7 0 5 0;
#X connect 8 0 4 0;
#X connect 9 0 13 0;
#X connect 10 0 12 0;
#X connect 10 0 17 0;
#X connect 14 0 0 0;
#X connect 15 0 2 0;
#X connect 16 0 1 0;
#X connect 21 0 3 0;
